<?xml version="1.0" encoding="utf-8"?>
<!-- Generator: Adobe Illustrator 19.0.0, SVG Export Plug-In . SVG Version: 6.00 Build 0)  -->
<svg version="1.1" id="Capa_1" xmlns="http://www.w3.org/2000/svg" xmlns:xlink="http://www.w3.org/1999/xlink" x="0px" y="0px"
	 viewBox="49 39 233.8 60" style="enable-background:new 49 39 233.8 60;" xml:space="preserve">
<style type="text/css">
	.st0{fill:#FFFFFF;}
	.st1{fill:#DADADA;}
</style>
<g id="Shape_1_">
	<g transform="translate(-1272 3709.73)">
		<path id="path1_fill" class="st0" d="M49.1,61.3V42.8h3.5v18.5H49.1z M80.3,54.3c0-4.8,3-7.8,7.3-7.8c3.1,0,6,2.1,6,5.5
			c0,1.3-0.5,2.1-1.6,2.7c-1.1,0.5-2.9,0.7-5.4,0.7h-2.7l0,0.2c0.3,1.9,2.2,3.2,4.5,3.2c1.2,0,2.5-0.1,3.7-0.7v2.5
			c-0.8,0.7-2.2,1-4.4,1C83.9,61.5,80.3,58.7,80.3,54.3z M85.7,53.1c1.8,0,2.9-0.1,3.6-0.3c0.7-0.2,1-0.7,1-1.3
			c0-0.7-0.3-1.3-0.9-1.8c-0.5-0.4-1.3-0.6-2.2-0.6c-1.9,0-3.3,1.5-3.4,3.3l0,0.5v0.1L85.7,53.1L85.7,53.1z M95.4,52v9.2H99v-8.5
			c0-1.2,0.2-1.9,0.7-2.5c0.5-0.6,1.2-0.8,2.1-0.8c0.3,0,0.7,0,1,0.1v-2.7c-0.4-0.2-1-0.4-1.8-0.4C97,46.4,95.5,49.2,95.4,52z
			 M62.1,46.4c-4.7,0-6.8,3.1-6.8,6.2v8.6h3.5v-8.4c0-1.1,0.3-1.9,0.8-2.6c0.5-0.6,1.2-0.9,2.2-0.9c1,0,1.8,0.3,2.4,0.9
			c0.6,0.7,0.9,1.6,0.9,2.8v8.1h3.5v-8.4C68.5,48.7,65.6,46.5,62.1,46.4z M71.2,42.8h3.5l0,3.7h5.2v1.3c0,0.6-0.6,1.6-2.1,1.6h-3.1
			v6.3c0,1,0.2,1.7,0.7,2.1c0.5,0.5,1.2,0.7,1.9,0.7c1.1,0,1.9-0.1,2.5-0.4v2.1c-0.4,0.8-1.3,1.3-3,1.3c-3.8,0-5.6-2-5.6-5.4
			L71.2,42.8L71.2,42.8z"/>
	</g>
</g>
<g id="Shape_2_">
	<g transform="translate(-1189.34 3714.2)">
		<path id="path2_fill" class="st0" d="M131.7,52.9v9.3h3.6v-8.6c0-1.2,0.2-2,0.7-2.5c0.5-0.6,1.2-0.8,2.1-0.8c0.4,0,0.7,0,1,0.1
			v-2.7c-0.4-0.2-1-0.4-1.8-0.4C133.3,47.3,131.7,50,131.7,52.9z"/>
	</g>
</g>
<g id="Shape_3_">
	<g transform="translate(-1204.98 3714.2)">
		<path id="path3_fill" class="st0" d="M116.1,55.1c0-4.4,2.5-7.9,7.2-7.9c4.4,0,7,3.5,6.9,7.4c0,4.4-2.5,7.6-7.2,7.6
			C118.6,62.3,116.1,59,116.1,55.1z M119.8,54.6c0,2.9,1.1,4.5,3.6,4.5c2.2,0,3.2-1.6,3.2-4c0-3-1.1-4.8-3.6-4.8
			C120.9,50.4,119.8,52.1,119.8,54.6z"/>
	</g>
</g>
<g id="Shape_4_">
	<g transform="translate(-1217.64 3714.2)">
		<path id="path4_fill" class="st0" d="M107.5,55.5v0.2c0.3,1.9,1.9,3.7,4.2,3.7c1.2,0,2.5-0.2,3.7-0.7V61c-0.8,0.6-2.2,1.3-4.4,1.3
			c-3.7,0-7.5-2.7-7.5-7.2c0-4.9,3.1-7.8,7.4-7.8l0,0c0,0,0,0,0,0c2.2,0,3.6,0.6,4.4,1.3v2.4c-1.2-0.6-2.5-0.7-3.7-0.7
			c-2.3,0-3.9,1.7-4.2,3.6C107.3,54.7,107.5,55.5,107.5,55.5z"/>
	</g>
</g>
<g id="Shape_5_">
	<g transform="translate(-1181.15 3714.2)">
		<path id="path5_fill" class="st0" d="M139.9,55.4c0-4.9,2.2-8.2,7.4-8.2c3.9,0,6.7,3.5,6.7,7.2c0,4.7-2.4,7.8-6.7,7.8
			c-1.7,0-3-0.7-3.7-1.9V66h-1.1c-1.3,0-2.6-0.9-2.6-2.5V55.4z M143.6,54.7c0,2.9,1.4,4.6,3.6,4.6c1.8,0,3-1.6,3-3.9
			c0-3.4-1.1-4.9-3.5-4.9C144.8,50.4,143.6,52.2,143.6,54.7z"/>
	</g>
</g>
<path class="st1" d="M49.4,84.2V43.4h7.8v40.8H49.4z M118.6,68.7c0-10.6,6.7-17.3,16.3-17.3c6.9,0,13.3,4.7,13.3,12.2
	c0,3-1.2,4.7-3.6,5.9c-2.4,1.1-6.4,1.6-12,1.6h-6l0.1,0.4c0.6,4.3,4.8,7,9.9,7c2.7,0,5.6-0.3,8.2-1.5v5.4c-1.8,1.4-4.9,2.1-9.8,2.1
	C126.7,84.6,118.6,78.5,118.6,68.7z M130.6,66.3c4,0,6.5-0.2,8.1-0.7c1.6-0.5,2.2-1.5,2.1-2.8c0-1.6-0.7-3-1.9-3.9
	c-1.2-0.9-2.9-1.3-4.9-1.3c-4.3,0-7.2,3.4-7.4,7.3l-0.1,1.1v0.3L130.6,66.3L130.6,66.3z M152.2,63.8v20.3h7.9V65.4
	c0-2.6,0.5-4.3,1.6-5.5c1.1-1.2,2.7-1.7,4.6-1.7c0.7,0,1.5,0.1,2.1,0.2v-5.9c-1-0.5-2.2-0.8-3.9-0.8
	C155.7,51.5,152.3,57.5,152.2,63.8z M78.3,51.5c-10.4,0-15,6.9-15,13.6v19h7.8V65.7c0-2.4,0.6-4.3,1.8-5.6c1.2-1.3,2.8-2,4.8-2
	c2.2,0,4,0.6,5.3,2c1.3,1.4,1.9,3.5,1.9,6.2v17.9h7.8V65.6C92.6,56.5,86.1,51.6,78.3,51.5z M98.5,43.4h7.8l-0.1,8.2h11.5v3
	c0,1.4-1.4,3.5-4.7,3.5h-6.8v13.9c0,2.1,0.5,3.7,1.5,4.7c1.1,1,2.6,1.4,4.3,1.4c2.3,0,4.3-0.2,5.6-0.8v4.6c-0.8,1.7-3,2.9-6.6,2.9
	c-8.5,0-12.4-4.4-12.4-11.9L98.5,43.4L98.5,43.4z M232.8,65.8v20.5h8V67.3c0-2.6,0.6-4.4,1.6-5.6c1.1-1.2,2.7-1.8,4.7-1.8
	c0.9,0,1.5,0.1,2.2,0.2v-6c-1-0.5-2.3-0.8-4-0.8C236.3,53.3,232.8,59.3,232.8,65.8z M198.1,70.6c0-9.7,5.7-17.4,16.1-17.4
	c9.8,0,15.4,7.7,15.3,16.2c0,9.7-5.6,16.8-16.1,16.8C203.7,86.4,198.1,79.2,198.1,70.6z M206.4,69.5c0,6.5,2.4,10,7.9,10
	c4.8,0,7.2-3.5,7.2-8.7c0-6.7-2.5-10.6-7.9-10.6C208.8,60.2,206.4,64.1,206.4,69.5z M179,71.5v0.4c0.6,4.3,4.2,8.1,9.3,8.1
	c2.7,0,5.6-0.4,8.2-1.5v5.1c-1.8,1.4-4.8,2.9-9.8,2.9c-8.3,0-16.6-6-16.6-15.8c0-10.7,6.9-17.2,16.5-17.2l0,0c0,0,0,0,0.1,0
	c4.9,0,8,1.3,9.8,2.8v5.2c-2.6-1.2-5.5-1.6-8.2-1.6c-5.1,0-8.6,3.7-9.3,8C178.7,69.6,179,71.5,179,71.5z M251,71.4
	c0-10.7,4.9-18.1,16.5-18.1c8.6,0,14.9,7.8,14.9,15.8c0,10.3-5.3,17.2-14.9,17.2c-3.7,0-6.7-1.5-8.3-4.3v12.6h-2.5
	c-2.8,0-5.7-2-5.7-5.5L251,71.4L251,71.4z M259.2,69.6c0,6.4,3.2,10.1,8.1,10.1c3.9,0,6.7-3.5,6.7-8.6c0-7.6-2.5-10.8-7.8-10.8
	C261.7,60.3,259.2,64.1,259.2,69.6z"/>
</svg>
