<?xml version="1.0" encoding="utf-8"?>
<!-- Generator: Adobe Illustrator 19.0.0, SVG Export Plug-In . SVG Version: 6.00 Build 0)  -->
<svg version="1.1" id="Capa_1" xmlns="http://www.w3.org/2000/svg" xmlns:xlink="http://www.w3.org/1999/xlink" x="0px" y="0px"
	 viewBox="-37 39 60 60" style="enable-background:new -37 39 60 60;" xml:space="preserve">
<style type="text/css">
	.st0{fill:#FFFFFF;}
	.st1{fill:#DADADA;}
</style>
<g id="Shape">
	<g transform="translate(-1307 3706)">
		<path id="path0_fill" class="st0" d="M-37,42.6c0-2,1.6-3.6,3.6-3.6h23.2v23.4c0,2-1.6,3.6-3.6,3.6H-37V42.6z M-30.7,61.1
			l14.3-2.6V44l-14.3,2.6V61.1z"/>
	</g>
</g>
<path id="Shape_6_" class="st1" d="M-37,47c0-4.4,3.6-8,8-8h52v52c0,4.4-3.6,8-8,8h-52C-37,99-37,47-37,47z M-23,88.1l32-5.8V50.1
	l-32,5.8V88.1z"/>
</svg>
